# xmcd
#
# Track frame offsets:
#	150
#	15321
#	26796
#	40920
#	54364
#	68864
#	80761
#	96052
#	109864
#	127575
#	139249
#	151896
#	167809
#	187410
#	200994
#	216687
#	228608
#	241546
#	254803
#	269938
#
# Disc length: 3766 seconds
#
# Revision: 0
# Processed by: cddbd v1.5.2PL0 Copyright (c) Steve Scherf et al.
# Submitted via: EasyCDDAExtractor 16.0.6.1
#
DISCID=310eb414
DTITLE=Συλλογικός δίσκος - Τα τραγούδια του τζούκ μποξ 7
DYEAR=2010
DGENRE=Ποικίλη
TTITLE0=Μαρινέλλα - Άνοιξε πέτρα [Μ. Πλέσσας-Λ. Παπαδόπουλος]
TTITLE1=Διονυσίου Στράτος - Βρέχει φωτιά στη στράτα μου [Μ. Πλέσσας-Λ. Παπαδόπ
TTITLE1=ουλος]
TTITLE2=Μπέλλου Σωτηρία - Απόψε κάνεις μπαμ [Βασ. Τσιτσάνης]
TTITLE3=Γαβαλάς Πάνος-Κούρτη Ρία - Ένας σταθμός [Χ. Νικολόπουλος-Β. Ατραΐδης/Γ
TTITLE3=Βασιλόπουλος]
TTITLE4=Πουλόπουλος Γιάννης - Πάμε για ύπνο, Κατερίνα [Γ. Κατσαρός-Πυθαγόρας]
TTITLE5=Μενιδιάτης Μιχάλης - Μην περιμένεις πιά [Απ. Καλδάρας]
TTITLE6=Περπινιάδης Βαγγέλης - Μη μ' αφήνεις μόνο μου [Βαγγ. Περπινιάδης]
TTITLE7=Αγγελόπουλος Μανώλης - Δώσ' μου φίλε τη φωτιά σου [Ν. Πετρίδης-Μάρω Μπ
TTITLE7=ιζάνη]
TTITLE8=Γλυκερία - Τα ξένα χέρια [Βασ. Τσιτσάνης]
TTITLE9=Διονυσίου Άγγελος - Λέγε με παλιόπαιδο [Τ. Μουσαφίρης]
TTITLE10=Κύπριος Στράτος - Λίγο-λίγο θα με συνηθίσεις [Α.Καλδάρας-ιδίου κ Ε.Πα
TTITLE10=παγιανοπούλου]
TTITLE11=Καζαντζίδης Στέλιος - Το καπηλειό [Γ. Μητσάκης]
TTITLE12=Μοσχολιού Βίκυ - Το μονοπάτι[Γ.Μουζάκης-Α.Σακελλάριος/Γιαννακόπουλος 
TTITLE12=Χρ. κ Γ.]
TTITLE13=Ζαγοραίος Σπύρος - Το πιτσιρικάκι [Γ. Ροβερτάκης-Αργύρης Νικολέσκο]
TTITLE14=Κύπριος Στράτος-Σακελλαρίου Ρίτα - Φύγε κι άσε με [Π. Γαβαλάς/Τ. Κουλ
TTITLE14=ούρης-Κ. Βίρβος]
TTITLE15=Μιχαλόπουλος Πάνος - Μού τα φάγανε οι γυναίκες [Λ. Μπουρνέλης-Γ. Γκάμ
TTITLE15=αρης]
TTITLE16=Λαμπράκη Χαρούλα-Πανταζής Λευτέρης - Με παρέσυρε το ρέμα [Βασ. Τσιτσά
TTITLE16=νης]
TTITLE17=Ζακυνθηνάκης Ανδρέας - Αυτή η νύχτα μένει [Στέλιος Καζαντζίδης]
TTITLE18=Περπινιάδης Βαγγέλης - Πώς θα περάσει η βραδιά [Γ. Παπαϊωάννου-Αλ. Αγ
TTITLE18=γελόπουλος]
TTITLE19=Καφάσης Κώστας - Γέλα, κυρία μου [Κ. Ψυχογιός]
EXTD=
EXTT0=
EXTT1=
EXTT2=
EXTT3=
EXTT4=
EXTT5=
EXTT6=
EXTT7=
EXTT8=
EXTT9=
EXTT10=
EXTT11=
EXTT12=
EXTT13=
EXTT14=
EXTT15=
EXTT16=
EXTT17=
EXTT18=
EXTT19=
PLAYORDER=
